<?xml version="1.0" encoding="iso-8859-1"?>
<!-- Generator: Adobe Illustrator 19.0.0, SVG Export Plug-In . SVG Version: 6.00 Build 0)  -->
<svg version="1.1" id="Capa_1" xmlns="http://www.w3.org/2000/svg" xmlns:xlink="http://www.w3.org/1999/xlink" x="0px" y="0px"
	 viewBox="0 0 395.638 395.638" style="enable-background:new 0 0 395.638 395.638;" xml:space="preserve">
<path style="fill:#212A30;" d="M368.352,112.552h-0.003L355.43,86.706c-4.625-9.243-14.072-15.082-24.4-15.082h-40.74l-1.769-15.9
	c-1.153-10.369-9.911-18.206-20.348-18.206h-72.498c-10.437,0-19.195,7.838-20.348,18.206l-1.769,15.9h-43.954V51.161
	c0-3.766-3.049-6.821-6.821-6.821H95.498c-3.773,0-6.821,3.056-6.821,6.821v20.463H78.249c-10.327,0-19.775,5.839-24.4,15.082
	l-12.919,25.846h-0.005C18.301,112.518,0,130.909,0,153.542v0.115v54.216v54.926v54.216v20.641c0,11.303,9.16,20.464,20.464,20.464
	h54.571c11.303,0,20.464-9.16,20.464-20.464l0.001,0.001c0,3.766,3.049,6.822,6.821,6.822h266.03
	c15.068,0,27.285-12.217,27.285-27.285V139.837C395.636,124.769,383.419,112.552,368.352,112.552z"/>
<path style="fill:#38454F;" d="M129.605,78.446H88.677V51.161c0-3.766,3.049-6.821,6.821-6.821h27.285
	c3.773,0,6.821,3.056,6.821,6.821L129.605,78.446L129.605,78.446z"/>
<polygon style="fill:#212A30;" points="81.856,214.872 115.962,214.872 115.962,105.731 81.856,105.731 "/>
<path style="fill:#38454F;" d="M368.352,112.552l-73.513,0.007l6.808,61.146c-16.241-20.669-41.399-33.868-69.721-33.868
	s-53.479,13.199-69.721,33.868l6.808-61.146l-65.075,0.007c-5.273,5.416-7.701,13.049-6.548,20.894
	c0.041,0.321,0.089,0.641,0.137,0.962c0.164,0.887,0.348,1.773,0.608,2.66c0.43,1.583,0.969,3.151,1.746,4.687
	c5.797,11.596,6.193,25.43,0.075,36.89c-3.254,6.118-4.454,13.124-4.454,20.055l0,0v138.943c0,3.766,3.049,6.822,6.822,6.822h266.03
	c15.068,0,27.285-12.217,27.285-27.285V139.837C395.636,124.769,383.419,112.552,368.352,112.552"/>
<g>
	<path style="fill:#212A30;" d="M334.245,139.837c3.773,0,6.821,3.056,6.821,6.822c0,3.766-3.049,6.821-6.821,6.821
		s-6.822-3.056-6.822-6.821C327.423,142.893,330.472,139.837,334.245,139.837"/>
	<path style="fill:#212A30;" d="M361.53,139.837c3.773,0,6.822,3.056,6.822,6.822c0,3.766-3.049,6.821-6.822,6.821
		c-3.772,0-6.821-3.056-6.821-6.821C354.708,142.893,357.757,139.837,361.53,139.837"/>
	<path style="fill:#212A30;" d="M231.925,139.837c28.322,0,53.479,13.199,69.721,33.868L288.521,55.723
		c-1.153-10.369-9.911-18.206-20.348-18.206h-72.498c-10.437,0-19.195,7.838-20.348,18.206l-13.124,117.982
		C178.446,153.036,203.603,139.837,231.925,139.837"/>
</g>
<g>
	<path style="fill:#13191C;" d="M173.564,71.624H78.249c-10.327,0-19.775,5.839-24.4,15.082l-12.919,25.846h128.084L173.564,71.624z
		"/>
	<path style="fill:#13191C;" d="M294.836,112.552h73.513L355.43,86.706c-4.625-9.243-14.072-15.082-24.4-15.082h-40.743
		L294.836,112.552z"/>
</g>
<path style="fill:#F0C419;" d="M245.567,105.731h-27.285c-7.531,0-13.642-6.112-13.642-13.642V78.446
	c0-7.531,6.112-13.642,13.642-13.642h27.285c7.531,0,13.642,6.112,13.642,13.642v13.642
	C259.21,99.619,253.098,105.731,245.567,105.731"/>
<path style="fill:#212A30;" d="M368.352,296.728c0,11.303-9.16,20.464-20.464,20.464c-11.303,0-20.464-9.16-20.464-20.464
	c0-11.303,9.16-20.464,20.464-20.464C359.19,276.264,368.352,285.424,368.352,296.728"/>
<g>
	<path style="fill:#38454F;" d="M6.821,153.48c-2.306,0-4.577,0.068-6.821,0.178v54.216c2.244,0.109,4.516,0.177,6.821,0.177
		c33.909,0,61.392-12.217,61.392-27.285C68.213,165.699,40.731,153.48,6.821,153.48"/>
	<path style="fill:#38454F;" d="M6.821,262.621c-2.306,0-4.577,0.068-6.821,0.178v54.216c2.244,0.109,4.516,0.178,6.821,0.178
		c33.909,0,61.392-12.217,61.392-27.285C68.213,274.838,40.731,262.621,6.821,262.621"/>
</g>
<path style="fill:#556080;" d="M320.603,228.515c0,48.977-39.701,88.677-88.677,88.677s-88.678-39.701-88.678-88.677
	s39.7-88.678,88.678-88.678S320.603,179.537,320.603,228.515"/>
<path style="fill:#8697CB;" d="M231.925,323.759c-52.518,0-95.245-42.726-95.245-95.245s42.726-95.245,95.245-95.245
	s95.246,42.727,95.246,95.246C327.17,281.033,284.443,323.759,231.925,323.759z M231.925,146.405
	c-45.275,0-82.109,36.834-82.109,82.109c0,45.275,36.834,82.108,82.109,82.108s82.109-36.834,82.109-82.108
	C314.033,183.239,277.2,146.405,231.925,146.405z"/>
<path style="fill:#FFFFFF;" d="M293.317,228.515c0,33.909-27.483,61.392-61.392,61.392s-61.392-27.483-61.392-61.392
	s27.483-61.392,61.392-61.392S293.317,194.606,293.317,228.515"/>
<g>
</g>
<g>
</g>
<g>
</g>
<g>
</g>
<g>
</g>
<g>
</g>
<g>
</g>
<g>
</g>
<g>
</g>
<g>
</g>
<g>
</g>
<g>
</g>
<g>
</g>
<g>
</g>
<g>
</g>
</svg>
