<svg height="512" viewBox="0 0 64 64" width="512" xmlns="http://www.w3.org/2000/svg" xmlns:xlink="http://www.w3.org/1999/xlink"><linearGradient id="New_Gradient_Swatch_copy_17" gradientUnits="userSpaceOnUse" x1="57" x2="57" y1="-14.838" y2="95.137"><stop offset="0" stop-color="#00adee"/><stop offset=".401" stop-color="#0070b4"/><stop offset="1" stop-color="#2e3191"/></linearGradient><linearGradient id="New_Gradient_Swatch_copy_17-2" x1="31.952" x2="31.952" xlink:href="#New_Gradient_Swatch_copy_17" y1="-14.838" y2="95.137"/><linearGradient id="linear-gradient" gradientUnits="userSpaceOnUse" x1="16.548" x2="16.548" y1="-14.489" y2="43.841"><stop offset="0" stop-color="#f3f7ff"/><stop offset="1" stop-color="#cdd9ff"/></linearGradient><linearGradient id="linear-gradient-2" x1="47.452" x2="47.452" xlink:href="#linear-gradient" y1="-14.489" y2="43.841"/><linearGradient id="linear-gradient-3" x1="15.835" x2="15.835" xlink:href="#linear-gradient" y1="-28.337" y2="73.612"/><linearGradient id="New_Gradient_Swatch_copy_17-3" x1="19.877" x2="28.022" xlink:href="#New_Gradient_Swatch_copy_17" y1="1.97" y2="77.144"/><g id="Videography"><path d="m64 39.751v15.368a3.5 3.5 0 0 1 -5.29 3l-7.71-4.588h-1v-12.191h1l7.71-4.59a3.494 3.494 0 0 1 5.29 3.001z" fill="url(#New_Gradient_Swatch_copy_17)"/><path d="m47.45.5a16.48 16.48 0 0 0 -15.45 10.788 16.449 16.449 0 1 0 -23.31 20.083h-2.69a6 6 0 0 0 -6 5.993v20.143a6 6 0 0 0 6 5.993h39a6 6 0 0 0 6-5.993v-24.523a16.434 16.434 0 0 0 -3.55-32.484z" fill="url(#New_Gradient_Swatch_copy_17-2)"/><path d="m28.145 16.932a11.6 11.6 0 1 1 -11.6-11.582 11.608 11.608 0 0 1 11.6 11.582z" fill="url(#linear-gradient)"/><path d="m14.812 9.027a1 1 0 0 1 -.19-1.98 10.139 10.139 0 0 1 1.923-.184 1 1 0 1 1 0 2 8.114 8.114 0 0 0 -1.545.145.966.966 0 0 1 -.188.019z" fill="#fff"/><path d="m7.465 17.931a1 1 0 0 1 -1-1 10.013 10.013 0 0 1 3.87-7.931 1 1 0 1 1 1.235 1.573 8.027 8.027 0 0 0 -3.105 6.355 1 1 0 0 1 -1 1.003z" fill="#fff"/><path d="m59.05 16.932a11.6 11.6 0 1 1 -11.6-11.582 11.608 11.608 0 0 1 11.6 11.582z" fill="url(#linear-gradient-2)"/><ellipse cx="15.835" cy="47.438" fill="url(#linear-gradient-3)" rx="6.5" ry="6.493"/><g fill="#fff"><path d="m11.889 48.437a1 1 0 0 1 -1-1 4.948 4.948 0 0 1 4.946-4.937 1 1 0 1 1 0 2 2.947 2.947 0 0 0 -2.946 2.943 1 1 0 0 1 -1 .994z"/><path d="m45.726 9.025a1 1 0 0 1 -.188-1.98 10.135 10.135 0 0 1 1.912-.182 1 1 0 1 1 0 2 8.146 8.146 0 0 0 -1.535.146 1.016 1.016 0 0 1 -.189.016z"/><path d="m38.37 17.931a1 1 0 0 1 -1-1 10.012 10.012 0 0 1 3.876-7.931 1 1 0 0 1 1.233 1.573 8.027 8.027 0 0 0 -3.109 6.359 1 1 0 0 1 -1 .999z"/><path d="m16.916 35.359h-1.081a1 1 0 1 1 0-2h1.081a1 1 0 1 1 0 2z"/><path d="m3 43.185a1 1 0 0 1 -1-1v-4.891a3.939 3.939 0 0 1 3.938-3.933h5.531a1 1 0 1 1 0 2h-5.531a1.938 1.938 0 0 0 -1.938 1.933v4.892a1 1 0 0 1 -1 .999z"/><path d="m48 45.687a1 1 0 0 1 -1-1v-7.393a1 1 0 0 1 2 0v7.394a1 1 0 0 1 -1 .999z"/></g><path d="m.651 60.209a6 6 0 0 0 5.349 3.291h39a6 6 0 0 0 6-5.993v-3.976s-2.387 6.407-50.349 6.678z" fill="url(#New_Gradient_Swatch_copy_17-3)"/></g></svg>